<?xml version="1.0" encoding="iso-8859-1"?>
<!-- Generator: Adobe Illustrator 19.0.0, SVG Export Plug-In . SVG Version: 6.00 Build 0)  -->
<svg version="1.1" id="Layer_1" xmlns="http://www.w3.org/2000/svg" xmlns:xlink="http://www.w3.org/1999/xlink" x="0px" y="0px"
	 viewBox="0 0 511.983 511.983" style="enable-background:new 0 0 511.983 511.983;" xml:space="preserve">
<g>
	<g>
		<circle cx="311.875" cy="47.647" r="47.647"/>
	</g>
</g>
<g>
	<g>
		<path d="M394.112,267.978c-5.191,0-10.169,0.915-14.782,2.587c4.451-3.053,7.423-7.463,8.696-12.415
			c2.967-11.542-3.977-23.312-15.534-26.282l-72.322-18.589l-26.987-77.54l39.098,58.38l14.145-37.048
			c6.341-16.607-1.982-35.21-18.589-41.552L255.037,95.22c-7.564-2.908-15.744-3.833-23.766-2.687l-87.451,12.493
			c-14.815,2.109-23.061,18.338-15.993,31.554l44.389,82.987l-17.803,48.596c-2.612,5.709-3.109,12.394-0.865,18.784l16.132,45.953
			l-67.305-7.344c-13.804-1.502-26.218,8.463-27.725,22.27c-1.507,13.805,8.464,26.218,22.27,27.725l106.977,11.672
			c8.511,0.931,17.01-2.545,22.422-9.363c5.37-6.766,6.892-15.813,4.031-23.962l-22.229-65.227l52.779,82.893L222.96,478.418
			c-4.647,13.087,2.196,27.463,15.283,32.109c13.102,4.651,27.469-2.212,32.109-15.283l42.047-118.421
			c2.592-7.299,1.675-15.386-2.486-21.919l-36.898-57.951l8.581-22.473l-8.544-2.196c-18.606-4.782-29.356-21.128-30.466-31.726
			l-9.19-87.782l29.801,85.624c2.38,6.837,8.021,12.015,15.015,13.812c8.366,2.15,75.007,19.278,83.532,21.47
			c3.551,0.913,7.26,0.939,11.018-0.084c-13.477,7.639-22.024,21.965-22.024,37.751c0,23.954,19.419,43.373,43.373,43.373
			c23.954,0,43.373-19.419,43.373-43.373C437.487,287.256,417.889,267.978,394.112,267.978z M192.61,166.158l-12.16-22.735
			l22.04-3.138L192.61,166.158z"/>
	</g>
</g>
<g>
</g>
<g>
</g>
<g>
</g>
<g>
</g>
<g>
</g>
<g>
</g>
<g>
</g>
<g>
</g>
<g>
</g>
<g>
</g>
<g>
</g>
<g>
</g>
<g>
</g>
<g>
</g>
<g>
</g>
</svg>
